<?xml version="1.0" standalone="no"?><!DOCTYPE svg PUBLIC "-//W3C//DTD SVG 1.1//EN" "http://www.w3.org/Graphics/SVG/1.1/DTD/svg11.dtd"><svg t="1596231657542" class="icon" viewBox="0 0 1024 1024" version="1.1" xmlns="http://www.w3.org/2000/svg" p-id="1610" xmlns:xlink="http://www.w3.org/1999/xlink" width="200" height="200"><defs><style type="text/css"></style></defs><path d="M600.064 243.712l170.496 170.496c23.552 23.552 23.552 61.44 0 84.992l-255.488 255.488c-23.552 23.552-61.44 23.552-84.992 0l-170.496-170.496c-23.552-23.552-23.552-61.44 0-84.992l255.488-255.488c23.04-23.552 61.44-23.552 84.992 0z" fill="#CAE4FF" p-id="1611"></path><path d="M457.728 964.096c13.824 13.824 35.84 13.824 49.664 0l419.84-419.84c6.656-6.656 10.24-15.872 10.24-25.6l-9.728-395.264c-0.512-18.432-14.848-33.28-33.28-33.792l-405.504-19.968c-9.728-0.512-19.456 3.072-26.624 10.24l-419.84 419.84c-13.824 13.824-13.824 35.84 0 49.152l415.232 415.232z m43.52-824.32l357.376 17.408 8.704 347.648-384.512 385.024-365.568-365.568 384-384.512z m84.992 211.456L354.304 583.68c-13.824 13.312-36.352 12.8-49.664-1.024-12.8-13.312-12.8-34.816 0-48.128L537.088 302.08c13.824-13.312 35.84-12.8 49.152 1.024 12.8 13.824 12.8 34.816 0 48.128z m-103.424 360.96c-13.824 13.312-36.352 12.8-49.664-1.024-12.8-13.312-12.8-34.816 0-48.128l153.088-153.088c13.824-13.312 36.352-12.8 49.664 1.024 12.8 13.312 12.8 34.816 0 48.128l-153.088 153.088z m261.632-439.808c-16.384-16.384-16.384-43.008 0-59.392 16.384-16.384 43.008-16.384 59.392 0s16.384 43.008 0 59.392c-16.384 16.384-43.008 16.384-59.392 0z" fill="#0972E7" p-id="1612"></path></svg>