<?xml version="1.0" standalone="no"?><!DOCTYPE svg PUBLIC "-//W3C//DTD SVG 1.1//EN" "http://www.w3.org/Graphics/SVG/1.1/DTD/svg11.dtd"><svg t="1599040794480" class="icon" viewBox="0 0 1024 1024" version="1.1" xmlns="http://www.w3.org/2000/svg" p-id="15332" xmlns:xlink="http://www.w3.org/1999/xlink" width="200" height="200"><defs><style type="text/css"></style></defs><path d="M301.07408 493.354338c0 0-38.229696-0.552585-38.229696 18.974144 0 19.524682 38.229696 18.972097 38.229696 18.972097s38.233789-0.51063 38.233789-18.972097C339.308893 493.874177 301.07408 493.354338 301.07408 493.354338zM301.07408 359.047446c0 0-38.229696-0.550539-38.229696 18.974144 0 19.522636 38.229696 18.972097 38.229696 18.972097s38.233789-0.514723 38.233789-18.972097C339.308893 359.559099 301.07408 359.047446 301.07408 359.047446zM301.07408 627.663276c0 0-38.229696-0.546446-38.229696 18.972097 0 19.524682 38.229696 18.97619 38.229696 18.97619s38.233789-0.515746 38.233789-18.97619C339.308893 628.176976 301.07408 627.663276 301.07408 627.663276zM725.998909 359.047446 432.204629 359.047446c0 0-35.593659-0.550539-35.593659 18.974144 0 19.522636 35.593659 18.972097 35.593659 18.972097l293.795303 0c0 0 35.597753-0.514723 35.597753-18.972097C761.596661 359.559099 725.998909 359.047446 725.998909 359.047446zM725.998909 627.663276 432.204629 627.663276c0 0-35.593659-0.546446-35.593659 18.972097 0 19.524682 35.593659 18.97619 35.593659 18.97619l293.795303 0c0 0 35.597753-0.515746 35.597753-18.97619C761.596661 628.176976 725.998909 627.663276 725.998909 627.663276zM857.364819 89.886193l-172.682921 0c0-35.869952-38.376029-38.373982-38.376029-38.373982L400.977417 51.512211c0 0-42.472324 1.199315-42.472324 38.373982L166.633135 89.886193c-56.995085 0-57.558927 57.558927-57.558927 57.558927l0 767.479649c0 57.758472 57.558927 57.56302 57.558927 57.56302l690.731684 0c56.883545 0 57.560974-57.56302 57.560974-57.56302l0-767.479649C914.925792 147.44512 915.00254 89.886193 857.364819 89.886193zM396.874983 128.258129l249.430886 0 0 17.35118c0 10.5728-8.571213 19.142989-19.142989 19.142989L416.017972 164.752298c-10.5728 0-19.142989-8.571213-19.142989-19.142989L396.874983 128.258129 396.874983 128.258129zM876.55181 166.636205l0 729.105666c0 38.485523-38.376029 38.371936-38.376029 38.371936L185.820126 934.113807c0 0-38.376029-2.341325-38.376029-38.371936l0-729.105666c0 0 0.809435-38.378076 38.376029-38.378076l172.684968 0 0 38.378076c0 39.838334 38.369889 38.373982 38.369889 38.373982l249.430886 0c0 0 38.376029-8.495488 38.376029-38.373982L684.681898 128.258129l153.493883 0C877.352035 128.258129 876.55181 166.636205 876.55181 166.636205zM725.998909 493.354338 432.204629 493.354338c0 0-35.593659-0.552585-35.593659 18.974144 0 19.524682 35.593659 18.972097 35.593659 18.972097l293.795303 0c0 0 35.597753-0.51063 35.597753-18.972097C761.596661 493.874177 725.998909 493.354338 725.998909 493.354338z" p-id="15333"></path></svg>