<?xml version="1.0" standalone="no"?><!DOCTYPE svg PUBLIC "-//W3C//DTD SVG 1.1//EN" "http://www.w3.org/Graphics/SVG/1.1/DTD/svg11.dtd"><svg t="1596231695744" class="icon" viewBox="0 0 1024 1024" version="1.1" xmlns="http://www.w3.org/2000/svg" p-id="1741" xmlns:xlink="http://www.w3.org/1999/xlink" width="200" height="200"><defs><style type="text/css"></style></defs><path d="M333.824 189.952h376.32c37.888 0 68.608 30.72 68.608 68.608v513.024c0 37.888-30.72 68.608-68.608 68.608H333.824c-37.888 0-68.608-30.72-68.608-68.608V258.56c0-37.888 30.72-68.608 68.608-68.608z" fill="#CAE4FF" p-id="1742"></path><path d="M682.62912 653.312s-23.552-61.952-17.92-67.584c5.632-5.632 67.072 17.92 67.072 17.92l-49.152 49.664z m196.096 97.792l-49.664 50.176-142.848-144.384 49.664-50.176 142.848 144.384z m-34.816 66.048c1.536 1.536 4.608 1.536 6.144 0l43.52-44.032c1.536-1.536 1.536-4.608 0-6.144l-12.8-12.8-49.664 50.176 12.8 12.8zM728.70912 271.36c0 6.656-2.56 12.288-7.168 16.896-4.608 4.608-10.752 7.168-16.896 7.168h-384c-13.312 0-24.576-10.752-24.576-24.576 0-13.312 10.752-24.576 24.576-24.576h383.488c6.656 0 12.8 2.56 16.896 7.168 5.12 5.12 7.68 11.264 7.68 17.92z m-53.76 143.36c0 6.656-2.56 12.288-7.168 16.896-4.608 4.608-10.752 7.168-16.896 7.168h-299.52c-13.312 0-24.576-10.752-24.576-24.576 0-13.312 10.752-24.576 24.576-24.576h299.52c12.8 1.024 23.552 11.776 24.064 25.088z m-60.928 124.928c0 6.144-1.536 11.776-4.096 16.896-1.536 4.096-5.632 6.656-9.728 7.168h-173.568c-7.68 0-13.824-10.752-13.824-24.576s6.144-24.576 13.824-24.576h174.08c6.656 0.512 13.312 11.776 13.312 25.088z" fill="#0972E7" p-id="1743"></path><path d="M780.42112 976.384h-534.528c-60.928-0.512-110.08-49.664-109.568-110.592V202.24c0-60.928 49.152-110.592 109.568-110.592h534.528c60.928 0.512 110.08 49.664 109.568 110.592v399.872c0 11.776-9.728 21.504-21.504 21.504s-21.504-9.728-22.016-21.504V202.24c0-36.864-29.696-66.56-66.56-67.072h-534.016c-36.864 0-66.56 30.208-66.56 67.072V865.28c0 36.864 29.696 67.072 66.56 67.072h534.528c61.44 0 66.56-15.36 66.56-35.328 0-11.776 9.728-21.504 21.504-21.504 11.776 0 21.504 9.728 22.016 21.504 2.048 27.648-12.8 53.76-37.376 66.56-23.552 9.728-48.128 14.336-72.704 12.8z" fill="#0972E7" p-id="1744"></path></svg>